<svg width="614" height="586" viewBox="0 0 614 586" fill="none" xmlns="http://www.w3.org/2000/svg">
<path d="M0.509766 400.294C263.415 318.667 395.5 332 613.45 406.84C532.664 335.326 450.218 292.174 330.5 288.5C244.208 285.852 195.427 309.201 115.245 338.866C115.245 338.866 52.2581 363.947 0.509766 400.294Z" fill="#FFD644" stroke="#FFD644"/>
<path d="M413.046 292.039C424.265 140.984 252.417 156.593 267.205 285.493L139.722 307.648L242.728 273.912L139.722 261.324L242.728 249.743L139.722 215.504L245.788 228.596L150.43 172.706L254.457 208.959L170.828 131.921L267.205 192.846L199.384 100.199L283.013 178.244L229.98 72.5061L299.841 168.677L267.205 53.876L317.179 160.621L305.96 44.8127L337.576 155.083L347.265 44.8127L355.934 158.104L385 53.876L373.271 166.663L419.675 72.5061L391.119 172.706L451.291 100.199L405.907 187.307L478.318 129.403L415.596 205.938L497.695 163.642L427.834 222.05L510.444 201.909L432.424 242.694H514.013L432.424 265.352L514.013 282.975H429.874L510.444 320.739L413.046 292.039Z" fill="#FFD644" stroke="#FFD644"/>
<g filter="url(#filter0_d_9_18)">
<path d="M143.292 376.126L111.166 385.189C152.057 479.685 174.449 533.27 226.921 566.958C271.371 588.375 283.435 576.174 294.232 534.229C294.232 527.382 304.941 455.178 317.179 422.953C324.67 409.946 329.567 404.425 341.146 401.805C348.882 405.076 353.417 408.477 362.563 422.953C369.469 457.097 370.063 483.308 369.193 534.229C376.186 561.474 396.729 566.958 428.855 550.845C462.121 523.293 484.248 490.679 531.861 392.238L506.875 381.161C476.625 452.243 454.861 490.927 419.676 528.691C394.017 544.818 383.344 546.234 381.941 512.578C382.331 482.665 380.591 465.909 373.272 436.044C370.118 422.806 367.66 416.883 362.563 407.847C357.255 398.229 353.308 393.578 341.146 389.217C332.104 389.982 327.805 391.848 321.259 397.273C312.331 406.245 309.53 410.365 300.351 436.044C294.937 454.731 292.37 465.307 288.623 484.381C283.831 503.625 281.155 514.594 276.385 534.229C267.636 556.007 258.692 552.701 242.219 544.803C206.688 516.314 194.996 494.669 175.418 455.178C160.548 424.436 153.874 407.106 143.292 376.126Z" fill="#FF2DD1"/>
<path d="M143.292 376.126L111.166 385.189C152.057 479.685 174.449 533.27 226.921 566.958C271.371 588.375 283.435 576.174 294.232 534.229C294.232 527.382 304.941 455.178 317.179 422.953C324.67 409.946 329.567 404.425 341.146 401.805C348.882 405.076 353.417 408.477 362.563 422.953C369.469 457.097 370.063 483.308 369.193 534.229C376.186 561.474 396.729 566.958 428.855 550.845C462.121 523.293 484.248 490.679 531.861 392.238L506.875 381.161C476.625 452.243 454.861 490.927 419.676 528.691C394.017 544.818 383.344 546.234 381.941 512.578C382.331 482.665 380.591 465.909 373.272 436.044C370.118 422.806 367.66 416.883 362.563 407.847C357.255 398.229 353.308 393.578 341.146 389.217C332.104 389.982 327.805 391.848 321.259 397.273C312.331 406.245 309.53 410.365 300.351 436.044C294.937 454.731 292.37 465.307 288.623 484.381C283.831 503.625 281.155 514.594 276.385 534.229C267.636 556.007 258.692 552.701 242.219 544.803C206.688 516.314 194.996 494.669 175.418 455.178C160.548 424.436 153.874 407.106 143.292 376.126Z" stroke="#FF2DD1"/>
</g>
<path d="M492.596 48.8408C464.558 57.7982 451.156 68.1008 428.854 90.1291C447.083 79.8768 458.743 75.0654 486.477 70.9955C505.335 69.1396 514.911 70.7517 530.331 78.5482C548.347 92.4121 553.866 105.633 558.888 134.942C559.141 201.051 552.542 242.861 530.331 324.767L554.298 334.837C570.267 284.751 576.862 255.775 582.854 201.909C585.59 147.094 583.767 121.347 570.616 90.1291C543.365 51.5074 526.339 42.2402 492.596 48.8408Z" fill="#FF2DD1" stroke="#FF2DD1"/>
<path d="M88.2185 317.718L118.815 311.676C109.915 280.904 106.201 262.422 101.477 227.589C95.0643 190.229 94.4288 168.125 95.3577 127.893C96.0899 106.368 97.5511 94.4932 104.027 74.0166C109.78 57.9854 115.496 50.3928 130.033 39.2741C142.423 32.9922 149.371 29.4724 167.258 28.7002C181.117 27.9593 192.063 30.6009 215.702 39.2741C236.194 48.7338 247.247 55.7102 266.186 70.9955C250.084 48.3199 243.288 42.174 231 30.7143C207.746 12.0306 195.377 5.99419 174.397 2.51748C144.168 -0.736418 128.835 2.52007 105.556 21.1475C90.5783 32.7543 83.249 44.0336 72.4105 74.0166C62.212 104.731 63.7416 155.485 63.7416 157.097C64.6163 187.87 66.0101 204.761 70.3708 234.134C76.49 277.437 79.115 285.786 88.2185 317.718Z" fill="#FF2DD1" stroke="#FF2DD1"/>
<path d="M179.617 354.157C178.454 354.429 177.34 354.536 176.274 354.479C175.219 354.463 174.618 354.143 174.473 353.52C174.375 353.105 174.516 352.677 174.896 352.238C175.316 351.789 175.84 351.404 176.465 351.082C177.123 350.709 177.722 350.459 178.262 350.333C180.048 349.915 181.836 349.781 183.624 349.932C185.402 350.042 187.227 350.163 189.098 350.294C191.001 350.375 192.971 350.177 195.006 349.7C197.499 349.117 199.766 348.039 201.808 346.465C203.85 344.892 205.555 343.003 206.923 340.799C208.292 338.594 209.212 336.253 209.684 333.777C210.188 331.249 210.153 328.759 209.579 326.308C208.967 323.691 207.975 321.513 206.604 319.774C205.275 318.026 203.507 316.84 201.302 316.217C199.138 315.584 196.519 315.627 193.445 316.347C191.118 316.891 188.966 317.899 186.988 319.37C185 320.799 183.308 322.466 181.914 324.37C180.509 326.232 179.487 328.136 178.847 330.083C178.207 332.029 178.062 333.75 178.412 335.246C178.597 336.035 179.098 336.772 179.915 337.457C180.733 338.142 181.91 338.305 183.448 337.945C184.902 337.605 186.393 336.862 187.921 335.715C189.44 334.527 190.817 333.109 192.052 331.462C193.32 329.763 194.325 327.972 195.068 326.089C195.8 324.165 196.087 322.301 195.928 320.498C195.885 319.939 195.951 319.66 196.127 319.663C196.303 319.665 196.444 319.895 196.551 320.352C196.969 322.139 196.926 324.011 196.42 325.97C195.905 327.887 195.06 329.706 193.885 331.427C192.71 333.148 191.306 334.638 189.673 335.897C188.081 337.146 186.371 337.984 184.543 338.412C182.922 338.791 181.571 338.822 180.49 338.506C179.408 338.19 178.567 337.685 177.966 336.993C177.356 336.26 176.959 335.498 176.774 334.709C176.405 333.13 176.504 331.398 177.07 329.513C177.669 327.576 178.675 325.697 180.089 323.876C181.545 322.046 183.355 320.417 185.519 318.991C187.724 317.554 190.218 316.51 193.002 315.859C195.578 315.256 197.883 315.089 199.918 315.358C201.943 315.585 203.699 316.16 205.185 317.083C206.662 317.964 207.876 319.126 208.827 320.568C209.81 321.96 210.506 323.528 210.914 325.273C211.595 328.181 211.666 331.012 211.128 333.767C210.621 336.471 209.626 338.961 208.143 341.236C206.66 343.511 204.814 345.455 202.606 347.067C200.389 348.638 197.95 349.734 195.292 350.357C193.339 350.814 191.458 351.013 189.647 350.955C187.837 350.896 186.073 350.849 184.356 350.813C182.67 350.725 180.934 350.891 179.148 351.309C178.774 351.396 178.239 351.543 177.542 351.75C176.887 351.947 176.309 352.192 175.808 352.485C175.297 352.736 175.08 353.027 175.158 353.36C175.226 353.651 175.529 353.821 176.066 353.87C176.604 353.92 177.21 353.887 177.884 353.773C178.559 353.659 179.103 353.554 179.519 353.457C181.43 353.009 183.175 352.228 184.755 351.114C186.325 349.958 187.769 348.546 189.088 346.879C190.407 345.212 191.603 343.398 192.678 341.438C193.785 339.426 194.81 337.345 195.753 335.197C196.944 332.42 198.288 329.739 199.786 327.154C201.285 324.569 202.883 322.223 204.581 320.116C206.269 317.968 208.003 316.204 209.783 314.823C211.554 313.401 213.312 312.486 215.056 312.078C215.597 311.951 215.829 312.006 215.753 312.243C215.667 312.439 215.458 312.575 215.125 312.653C213.713 312.984 212.308 313.816 210.912 315.151C209.515 316.486 208.155 318.162 206.831 320.181C205.548 322.19 204.367 324.351 203.287 326.663C202.206 328.976 201.277 331.275 200.497 333.561C199.847 335.465 198.958 337.47 197.829 339.575C196.701 341.679 195.293 343.718 193.608 345.69C191.912 347.62 189.904 349.339 187.584 350.846C185.264 352.353 182.608 353.457 179.617 354.157ZM216.535 336.322C216.399 336.522 216.277 336.566 216.17 336.456C216.054 336.305 216.001 336.141 216.012 335.965C216.59 335.118 217.124 334.149 217.613 333.058C218.143 331.959 218.56 330.947 218.863 330.022C219.208 329.088 219.395 328.467 219.423 328.157C219.507 328.142 219.621 328.055 219.765 327.898C219.951 327.732 220.132 327.655 220.307 327.665C220.321 327.966 220.309 328.251 220.273 328.518C220.279 328.778 220.469 328.981 220.844 329.127C221.219 329.273 221.95 329.352 223.038 329.364C224.126 329.376 225.762 329.306 227.948 329.154C228.166 329.157 228.328 329.213 228.436 329.323C228.577 329.383 228.542 329.542 228.33 329.799C227.652 330.578 226.922 331.541 226.14 332.687C225.357 333.833 224.608 335.038 223.891 336.302C223.208 337.517 222.668 338.682 222.271 339.799C221.916 340.908 221.802 341.798 221.928 342.469C222.07 343.224 222.477 343.538 223.148 343.411C223.986 343.253 224.867 342.74 225.788 341.871C226.752 340.995 227.688 339.971 228.596 338.801C229.496 337.59 230.312 336.393 231.045 335.213C231.812 333.983 232.446 332.973 232.948 332.184L233.523 332.466C233.046 333.164 232.446 334.124 231.721 335.346C230.997 336.568 230.15 337.835 229.182 339.147C228.248 340.409 227.202 341.539 226.044 342.539C224.879 343.497 223.605 344.107 222.221 344.368C221.425 344.518 220.676 344.464 219.976 344.205C219.284 343.988 218.851 343.419 218.677 342.496C218.511 341.616 218.714 340.622 219.287 339.516C219.859 338.409 220.621 337.267 221.571 336.089C222.513 334.869 223.509 333.704 224.559 332.594C225.643 331.435 226.596 330.386 227.418 329.45L227.965 329.933C227.514 329.844 226.752 329.836 225.68 329.908C224.601 329.938 223.471 329.934 222.291 329.896C221.104 329.816 220.048 329.624 219.122 329.321C218.238 329.011 217.721 328.457 217.571 327.66C217.492 327.241 217.565 326.706 217.789 326.056C218.048 325.356 218.492 324.946 219.121 324.828C219.708 324.717 220.13 324.768 220.387 324.98C220.636 325.15 220.796 325.423 220.868 325.801C220.915 326.052 220.804 326.616 220.535 327.492C220.258 328.326 219.904 329.326 219.473 330.493C219.034 331.618 218.545 332.708 218.006 333.765C217.51 334.814 217.019 335.667 216.535 336.322ZM254.829 338.928C253.003 339.111 251.626 338.842 250.695 338.121C249.765 337.4 249.258 336.615 249.172 335.766C249.108 335.129 249.274 334.64 249.668 334.301C250.016 333.923 250.466 333.706 251.018 333.65C251.57 333.595 251.965 333.684 252.203 333.917C252.436 334.108 252.568 334.352 252.598 334.649C252.641 335.074 252.501 335.388 252.178 335.592C251.855 335.796 251.524 335.915 251.185 335.949C250.888 335.979 250.673 335.979 250.542 335.95C250.367 335.924 250.236 335.895 250.147 335.861C250.223 336.625 250.674 337.266 251.498 337.783C252.275 338.263 253.279 338.44 254.51 338.317C256.251 338.142 257.955 337.392 259.623 336.066C261.286 334.698 262.861 333.082 264.346 331.218C265.869 329.307 267.305 327.383 268.654 325.446C270.003 323.51 271.232 321.864 272.339 320.509C273.905 318.593 275.526 316.587 277.202 314.489C278.877 312.391 280.647 310.369 282.51 308.424C284.415 306.474 286.431 304.771 288.557 303.313C290.679 301.814 292.952 300.749 295.376 300.12C295.962 299.975 296.306 299.983 296.408 300.145C296.548 300.259 296.452 300.376 296.121 300.495C293.829 301.154 291.722 302.159 289.799 303.51C287.915 304.814 286.088 306.477 284.318 308.499C282.587 310.474 280.807 312.818 278.979 315.532C277.188 318.199 275.241 321.225 273.137 324.61C272.216 326.117 271.128 327.663 269.872 329.247C268.616 330.832 267.201 332.324 265.627 333.726C264.052 335.128 262.37 336.305 260.579 337.257C258.783 338.166 256.867 338.723 254.829 338.928ZM275.206 336.88C271.98 337.205 270.277 336.475 270.098 334.692C269.991 333.631 270.311 332.548 271.058 331.444C271.8 330.297 272.785 329.212 274.011 328.188C275.28 327.16 276.611 326.319 278.003 325.665C279.395 325.01 280.688 324.644 281.881 324.567C282.135 324.542 282.316 324.631 282.422 324.835C282.524 324.996 282.363 325.098 281.938 325.14C280.834 325.251 279.629 325.63 278.322 326.276C277.01 326.879 275.758 327.648 274.565 328.583C273.415 329.513 272.486 330.507 271.778 331.564C271.069 332.622 270.764 333.639 270.862 334.615C270.935 335.337 271.304 335.814 271.971 336.048C272.637 336.281 273.416 336.353 274.308 336.263C275.582 336.135 276.842 335.665 278.09 334.854C279.338 334.042 280.454 332.987 281.438 331.687C282.465 330.383 283.241 328.933 283.767 327.337C284.293 325.74 284.472 324.114 284.306 322.458C284.208 321.482 283.853 320.724 283.241 320.185C282.672 319.642 281.899 319.42 280.923 319.518C279.947 319.616 279.17 319.78 278.592 320.009C278.015 320.239 277.737 320.46 277.759 320.672C277.78 320.884 277.901 321.022 278.122 321.086C278.385 321.145 278.835 321.143 279.472 321.079C280.703 320.955 281.985 320.483 283.317 319.663C284.693 318.839 285.957 317.768 287.111 316.452C288.308 315.131 289.235 313.687 289.892 312.12C290.592 310.549 290.861 308.957 290.699 307.343C290.592 306.282 290.188 305.251 289.487 304.249C288.782 303.205 287.608 302.401 285.965 301.837C284.317 301.231 282.007 301.077 279.036 301.376C276.573 301.623 274.239 302.286 272.032 303.366C269.863 304.398 267.868 305.671 266.047 307.183C264.269 308.691 262.712 310.263 261.375 311.898C260.081 313.529 259.101 315.085 258.435 316.567C257.765 318.007 257.477 319.194 257.571 320.128C257.643 320.849 257.969 321.524 258.546 322.152C259.12 322.738 260.128 322.958 261.571 322.813C262.972 322.672 264.458 322.094 266.028 321.079C267.637 320.017 269.133 318.687 270.516 317.09C271.938 315.446 273.085 313.637 273.959 311.663C274.871 309.641 275.33 307.601 275.338 305.542C275.371 305.024 275.475 304.778 275.649 304.803C275.823 304.829 275.951 305.03 276.032 305.408C276.355 307.348 276.148 309.341 275.411 311.388C274.711 313.388 273.657 315.274 272.248 317.045C270.835 318.773 269.221 320.201 267.404 321.326C265.588 322.452 263.745 323.109 261.877 323.297C260.264 323.459 259.046 323.281 258.222 322.764C257.44 322.242 256.977 321.259 256.832 319.816C256.67 318.203 257.13 316.377 258.211 314.338C259.293 312.3 260.852 310.321 262.889 308.401C264.964 306.434 267.371 304.778 270.108 303.43C272.884 302.037 275.885 301.178 279.112 300.853C282.381 300.525 285.011 300.668 287.002 301.283C289.036 301.893 290.544 302.814 291.525 304.044C292.549 305.271 293.14 306.669 293.297 308.24C293.468 309.938 293.097 311.584 292.185 313.176C291.312 314.722 290.123 316.128 288.621 317.393C287.161 318.655 285.636 319.687 284.044 320.491C282.49 321.247 281.141 321.683 279.994 321.798C278.763 321.922 277.882 321.903 277.351 321.742C276.863 321.577 276.602 321.324 276.568 320.985C276.525 320.56 276.913 320.157 277.733 319.774C278.594 319.387 279.619 319.134 280.808 319.015C281.7 318.925 282.61 319.027 283.54 319.319C284.47 319.612 285.26 320.218 285.91 321.139C286.603 322.056 287.036 323.385 287.211 325.125C287.339 326.399 287.064 327.713 286.385 329.068C285.745 330.375 284.839 331.603 283.668 332.75C282.492 333.854 281.17 334.78 279.702 335.528C278.233 336.276 276.735 336.727 275.206 336.88ZM292.525 335.003C291.928 335.03 291.26 334.889 290.52 334.58C289.739 334.316 289.333 333.822 289.301 333.097C289.261 332.202 289.615 331.054 290.364 329.654C291.114 328.254 292.053 326.803 293.181 325.301C294.268 323.8 295.337 322.386 296.388 321.058C297.439 319.73 298.226 318.691 298.747 317.941C299.218 317.963 299.773 317.96 300.413 317.931C301.095 317.901 301.69 317.853 302.2 317.788C301.636 318.539 300.888 319.49 299.957 320.642C299.068 321.792 298.12 323.03 297.111 324.357C296.143 325.638 295.196 326.898 294.269 328.135C293.384 329.37 292.664 330.47 292.109 331.434C291.554 332.399 291.287 333.094 291.306 333.52C291.319 333.819 291.456 334.026 291.718 334.142C291.979 334.259 292.408 334.304 293.005 334.277C294.028 334.232 295.14 333.798 296.342 332.975C297.585 332.109 298.778 331.094 299.922 329.933C301.066 328.772 302.086 327.68 302.98 326.658C303.872 325.593 304.499 324.818 304.862 324.332L305.393 324.756C305.029 325.2 304.401 325.975 303.511 327.083C302.662 328.145 301.623 329.281 300.396 330.489C299.211 331.695 297.933 332.734 296.563 333.606C295.235 334.477 293.889 334.943 292.525 335.003ZM304.349 312.823C303.838 312.846 303.447 312.714 303.178 312.427C302.907 312.097 302.762 311.719 302.743 311.293C302.723 310.824 302.956 310.323 303.445 309.788C303.934 309.254 304.455 308.975 305.009 308.95C305.606 308.923 306.04 309.075 306.311 309.404C306.58 309.691 306.721 309.984 306.734 310.282C306.763 310.922 306.533 311.509 306.044 312.043C305.553 312.535 304.989 312.795 304.349 312.823ZM317.531 305.97C317.918 306.134 318.474 306.208 319.199 306.194C319.966 306.137 320.562 306.061 320.987 305.968C319.659 307.871 318.184 309.969 316.564 312.262C314.944 314.555 313.303 316.849 311.64 319.143C310.019 321.393 308.503 323.514 307.09 325.504C305.72 327.451 304.621 329.094 303.793 330.433C302.965 331.771 302.555 332.612 302.561 332.953C302.566 333.209 302.719 333.398 303.021 333.52C303.279 333.643 303.621 333.7 304.048 333.692C304.987 333.674 306.004 333.334 307.101 332.673C308.239 331.968 309.354 331.115 310.444 330.112C311.576 329.066 312.601 328.022 313.52 326.98C314.481 325.894 315.231 324.962 315.77 324.184L316.29 324.558C315.707 325.337 314.936 326.27 313.975 327.355C313.015 328.441 311.948 329.528 310.774 330.618C309.6 331.707 308.38 332.627 307.115 333.377C305.891 334.083 304.703 334.448 303.551 334.47C302.74 334.486 302.097 334.327 301.621 333.995C301.104 333.706 300.837 333.178 300.823 332.41C300.809 331.728 301.195 330.675 301.978 329.251C302.76 327.785 303.773 326.101 305.017 324.2C306.303 322.297 307.694 320.286 309.189 318.166C310.683 316.003 312.157 313.884 313.611 311.807C315.106 309.687 316.413 307.742 317.531 305.97ZM310.631 313.273C310.204 313.281 309.988 313.158 309.983 312.902C309.979 312.688 310.19 312.578 310.617 312.569L322.775 312.334C322.903 312.332 323.031 312.351 323.16 312.391C323.331 312.43 323.418 312.514 323.421 312.642C323.424 312.813 323.341 312.921 323.171 312.967C323.044 313.012 322.916 313.036 322.788 313.038L310.631 313.273ZM329.99 322.726C329.813 323.064 329.551 323.358 329.205 323.607C328.902 323.857 328.664 324.023 328.491 324.105C328.363 324.146 328.408 324.019 328.627 323.724C329.413 322.8 329.92 321.935 330.149 321.129C330.42 320.323 330.432 319.683 330.186 319.209C329.982 318.693 329.56 318.429 328.92 318.417C328.067 318.4 327.058 318.722 325.893 319.383C324.729 320.043 323.517 320.916 322.259 322.002C321.043 323.088 319.89 324.261 318.799 325.52C317.751 326.738 316.896 327.937 316.233 329.12C315.571 330.259 315.232 331.255 315.216 332.109C315.203 332.748 315.324 333.156 315.576 333.332C315.829 333.507 316.083 333.597 316.339 333.602C317.32 333.621 318.459 333.195 319.756 332.324C321.097 331.41 322.463 330.263 323.855 328.882C325.247 327.5 326.576 326.096 327.84 324.669C329.106 323.2 330.198 321.876 331.117 320.699C332.079 319.523 332.734 318.724 333.083 318.304C333.549 318.484 334.103 318.559 334.743 318.528C335.427 318.499 336.003 318.467 336.474 318.433C336.386 318.56 335.928 319.084 335.099 320.007C334.313 320.931 333.353 322.044 332.219 323.345C331.128 324.604 330.015 325.906 328.879 327.249C327.787 328.594 326.868 329.771 326.123 330.781C325.378 331.791 325.003 332.467 324.996 332.808C324.988 333.235 325.068 333.514 325.236 333.645C325.448 333.734 325.767 333.783 326.193 333.791C326.706 333.758 327.457 333.538 328.446 333.13C329.437 332.68 330.712 331.808 332.273 330.515C333.834 329.222 335.728 327.295 337.953 324.735C337.953 324.735 338.037 324.8 338.205 324.932C338.416 325.064 338.522 325.13 338.522 325.13C335.905 328.067 333.492 330.368 331.284 332.032C329.077 333.654 327.077 334.448 325.285 334.414C324.347 334.396 323.71 334.234 323.374 333.929C323.081 333.625 322.94 333.195 322.951 332.641C322.959 332.214 323.139 331.706 323.492 331.115C323.888 330.482 324.327 329.872 324.808 329.284C325.288 328.696 325.681 328.234 325.986 327.898C325.986 327.898 325.944 327.876 325.86 327.832C325.775 327.787 325.733 327.765 325.733 327.765C324.729 328.941 323.662 330.03 322.534 331.033C321.405 332.035 320.28 332.824 319.16 333.4C318.082 333.977 317.031 334.256 316.007 334.236C314.941 334.216 314.199 333.945 313.782 333.425C313.366 332.863 313.169 332.027 313.19 330.918C313.211 329.851 313.576 328.578 314.287 327.098C314.999 325.575 316.009 324.101 317.317 322.675C318.625 321.207 320.185 319.999 321.995 319.052C323.848 318.106 325.905 317.655 328.166 317.698C329.275 317.719 330.039 317.947 330.457 318.382C330.877 318.774 331.06 319.247 331.006 319.801C330.953 320.355 330.814 320.907 330.591 321.457C330.367 322.008 330.166 322.431 329.99 322.726ZM358.013 336.199C356.196 335.946 354.921 335.359 354.187 334.438C353.454 333.518 353.146 332.635 353.264 331.789C353.352 331.156 353.628 330.72 354.092 330.483C354.52 330.198 355.008 330.094 355.557 330.17C356.107 330.247 356.469 330.427 356.645 330.71C356.827 330.95 356.898 331.219 356.856 331.514C356.797 331.937 356.587 332.209 356.226 332.331C355.864 332.453 355.514 332.491 355.176 332.444C354.88 332.402 354.672 332.352 354.551 332.292C354.388 332.226 354.267 332.166 354.188 332.112C354.082 332.873 354.369 333.602 355.047 334.299C355.689 334.949 356.622 335.359 357.848 335.53C359.58 335.771 361.414 335.445 363.347 334.551C365.287 333.615 367.199 332.417 369.082 330.956C371.014 329.459 372.864 327.929 374.633 326.366C376.401 324.803 377.984 323.494 379.38 322.439C381.354 320.948 383.403 319.381 385.527 317.738C387.651 316.096 389.848 314.549 392.118 313.099C394.43 311.655 396.791 310.476 399.202 309.563C401.618 308.607 404.078 308.11 406.582 308.071C407.186 308.069 407.518 308.158 407.579 308.339C407.688 308.483 407.568 308.574 407.218 308.611C404.835 308.71 402.549 309.189 400.362 310.047C398.223 310.869 396.055 312.054 393.858 313.6C391.709 315.11 389.425 316.967 387.007 319.172C384.638 321.341 382.031 323.821 379.186 326.612C377.936 327.86 376.513 329.105 374.918 330.347C373.323 331.59 371.596 332.706 369.735 333.696C367.873 334.686 365.96 335.432 363.995 335.934C362.035 336.393 360.042 336.481 358.013 336.199ZM378.297 339.024C375.086 338.577 373.603 337.466 373.851 335.691C373.998 334.635 374.565 333.658 375.551 332.762C376.543 331.823 377.756 331.001 379.19 330.296C380.666 329.597 382.158 329.094 383.665 328.787C385.172 328.48 386.515 328.43 387.692 328.637C387.946 328.672 388.1 328.802 388.155 329.025C388.216 329.206 388.035 329.267 387.613 329.208C386.514 329.055 385.253 329.137 383.83 329.456C382.413 329.733 381.015 330.184 379.635 330.81C378.298 331.443 377.16 332.189 376.222 333.049C375.284 333.909 374.747 334.825 374.611 335.797C374.511 336.515 374.758 337.067 375.35 337.451C375.943 337.835 376.683 338.089 377.57 338.212C378.838 338.389 380.174 338.23 381.578 337.737C382.983 337.243 384.316 336.481 385.58 335.451C386.886 334.427 387.983 333.201 388.871 331.774C389.759 330.347 390.318 328.809 390.547 327.161C390.683 326.189 390.517 325.369 390.05 324.701C389.625 324.039 388.927 323.64 387.955 323.504C386.983 323.369 386.189 323.345 385.574 323.431C384.959 323.518 384.637 323.667 384.607 323.878C384.578 324.089 384.663 324.252 384.862 324.366C385.104 324.486 385.542 324.59 386.176 324.678C387.401 324.849 388.759 324.693 390.247 324.211C391.778 323.735 393.26 322.994 394.693 321.987C396.167 320.987 397.409 319.803 398.418 318.435C399.469 317.074 400.107 315.591 400.331 313.985C400.478 312.928 400.329 311.831 399.885 310.692C399.446 309.511 398.495 308.452 397.032 307.516C395.574 306.537 393.366 305.842 390.408 305.43C387.957 305.088 385.532 305.181 383.132 305.709C380.78 306.2 378.541 306.965 376.415 308.004C374.331 309.049 372.446 310.208 370.761 311.481C369.118 312.76 367.798 314.041 366.801 315.324C365.81 316.564 365.25 317.649 365.12 318.579C365.02 319.297 365.176 320.03 365.589 320.777C366.008 321.481 366.936 321.933 368.373 322.134C369.767 322.328 371.347 322.117 373.113 321.502C374.927 320.85 376.695 319.911 378.416 318.686C380.186 317.425 381.728 315.938 383.044 314.226C384.408 312.477 385.336 310.604 385.83 308.605C385.985 308.109 386.144 307.895 386.308 307.96C386.471 308.026 386.547 308.252 386.536 308.638C386.392 310.6 385.72 312.488 384.52 314.302C383.367 316.08 381.897 317.663 380.11 319.051C378.329 320.397 376.423 321.403 374.391 322.067C372.36 322.732 370.415 322.935 368.556 322.676C366.95 322.452 365.808 321.992 365.13 321.294C364.494 320.602 364.276 319.538 364.476 318.101C364.699 316.496 365.578 314.83 367.11 313.105C368.643 311.38 370.626 309.825 373.059 308.441C375.54 307.02 378.269 305.979 381.248 305.317C384.275 304.619 387.394 304.493 390.605 304.94C393.859 305.394 396.381 306.154 398.171 307.222C400.003 308.296 401.25 309.546 401.913 310.974C402.618 312.408 402.862 313.906 402.644 315.47C402.408 317.16 401.659 318.671 400.397 320.003C399.182 321.299 397.696 322.384 395.937 323.259C394.22 324.14 392.494 324.783 390.758 325.187C389.069 325.555 387.655 325.66 386.514 325.501C385.288 325.33 384.437 325.104 383.959 324.822C383.523 324.546 383.329 324.239 383.376 323.9C383.435 323.478 383.908 323.178 384.794 322.999C385.723 322.827 386.779 322.824 387.962 322.988C388.85 323.112 389.71 323.426 390.545 323.93C391.379 324.434 392.004 325.21 392.418 326.258C392.874 327.313 392.981 328.706 392.74 330.439C392.563 331.707 391.985 332.918 391.006 334.074C390.074 335.194 388.904 336.172 387.495 337.01C386.092 337.805 384.589 338.393 382.985 338.773C381.381 339.152 379.819 339.236 378.297 339.024ZM399.767 342.134C397.802 341.737 396.594 341.036 396.144 340.031C395.703 338.984 395.584 337.959 395.786 336.955C396.133 335.241 396.893 333.74 398.067 332.454C399.25 331.126 400.649 330.016 402.266 329.124C403.883 328.232 405.487 327.62 407.077 327.288C408.718 326.923 410.124 326.859 411.295 327.096C412.131 327.265 412.775 327.526 413.226 327.878C413.686 328.189 413.844 328.699 413.7 329.41C413.565 330.079 413.024 330.71 412.077 331.302C411.13 331.895 409.979 332.424 408.622 332.889C407.274 333.313 405.872 333.683 404.415 333.998C403.009 334.28 401.728 334.478 400.573 334.593C399.418 334.708 398.59 334.714 398.088 334.613C398.088 334.613 398.109 334.508 398.151 334.299C398.202 334.048 398.227 333.923 398.227 333.923C398.595 334.041 399.269 334.046 400.248 333.939C401.269 333.841 402.412 333.68 403.676 333.457C404.948 333.192 406.191 332.855 407.406 332.448C408.662 332.049 409.717 331.565 410.571 330.998C411.468 330.439 411.984 329.825 412.119 329.156C412.187 328.822 412.141 328.508 411.983 328.214C411.866 327.93 411.578 327.741 411.118 327.648C410.449 327.513 409.566 327.682 408.469 328.157C407.422 328.599 406.312 329.245 405.139 330.096C403.965 330.947 402.842 331.874 401.769 332.876C400.696 333.878 399.778 334.867 399.014 335.845C398.301 336.789 397.873 337.616 397.729 338.327C397.56 339.164 397.684 339.842 398.102 340.361C398.519 340.881 399.208 341.238 400.17 341.432C401.843 341.771 403.492 341.69 405.116 341.191C406.791 340.659 408.344 339.972 409.777 339.13C411.218 338.246 412.454 337.407 413.485 336.614C414.524 335.78 415.219 335.246 415.571 335.012C415.571 335.012 415.621 335.087 415.722 335.238C415.863 335.398 415.934 335.477 415.934 335.477C415.574 335.753 414.874 336.308 413.835 337.142C412.796 337.977 411.53 338.853 410.039 339.77C408.548 340.688 406.923 341.404 405.165 341.919C403.407 342.435 401.607 342.506 399.767 342.134ZM442.664 311.461C443.142 311.664 443.646 311.852 444.175 312.023C444.755 312.163 445.351 312.241 445.962 312.257C445.91 312.288 445.438 312.701 444.544 313.495C443.66 314.247 442.447 315.271 440.906 316.567C439.416 317.832 437.73 319.268 435.85 320.877C434.01 322.497 432.094 324.163 430.101 325.876C428.158 327.558 426.247 329.204 424.366 330.813C422.537 332.391 420.852 333.827 419.31 335.123C417.81 336.429 416.613 337.479 415.719 338.273C414.826 339.067 414.353 339.479 414.301 339.511C414.301 339.511 414.312 339.557 414.334 339.65C414.365 339.702 414.376 339.748 414.366 339.79C415.673 338.92 417.088 337.967 418.611 336.93C420.134 335.893 421.658 334.944 423.183 334.083C424.717 333.18 426.176 332.501 427.559 332.044C428.983 331.598 430.214 331.5 431.251 331.75C432.578 332.07 433.353 332.587 433.576 333.299C433.851 333.98 433.933 334.548 433.823 335.004C433.613 335.875 433.092 336.759 432.262 337.656C431.431 338.553 430.455 339.415 429.333 340.241C428.254 341.078 427.168 341.847 426.077 342.55C425.037 343.221 424.147 343.818 423.406 344.341C422.666 344.865 422.26 345.272 422.19 345.562C422.11 345.894 422.309 346.161 422.786 346.364C423.316 346.536 423.746 346.662 424.078 346.742C425.032 346.972 426.154 346.87 427.444 346.435C428.734 346 430.043 345.394 431.372 344.617C432.7 343.841 433.92 343.06 435.031 342.275C436.143 341.489 436.996 340.861 437.593 340.391L438 340.884C437.466 341.282 436.658 341.899 435.579 342.736C434.509 343.531 433.258 344.348 431.827 345.188C430.447 345.996 428.998 346.634 427.48 347.102C425.973 347.528 424.493 347.566 423.042 347.216C422.503 347.086 421.916 346.791 421.28 346.33C420.635 345.911 420.418 345.266 420.628 344.395C420.798 343.69 421.263 342.946 422.022 342.164C422.833 341.35 423.774 340.546 424.843 339.75C425.923 338.914 426.993 338.118 428.053 337.364C429.154 336.621 430.069 335.92 430.798 335.262C431.579 334.573 432.03 333.979 432.15 333.481C432.28 332.942 431.951 332.577 431.163 332.387C430.167 332.147 428.85 332.334 427.209 332.947C425.62 333.53 423.873 334.403 421.968 335.567C420.063 336.731 418.128 338.02 416.164 339.433C414.24 340.857 412.425 342.284 410.719 343.716C410.2 343.503 409.608 343.316 408.945 343.156C408.281 342.996 407.639 342.929 407.018 342.954C407.018 342.954 407.517 342.526 408.514 341.669C409.52 340.771 410.882 339.585 412.598 338.112C414.283 336.587 416.183 334.895 418.3 333.036C420.426 331.135 422.604 329.203 424.834 327.239C427.073 325.234 429.252 323.301 431.368 321.442C433.495 319.541 435.395 317.849 437.07 316.366C438.796 314.851 440.158 313.665 441.154 312.809C442.161 311.91 442.664 311.461 442.664 311.461ZM445.665 335.661C446.065 335.816 446.603 336.032 447.279 336.309C448.007 336.556 448.717 336.709 449.409 336.769C448.557 337.285 447.469 337.934 446.144 338.717C444.83 339.459 443.417 340.239 441.905 341.059C440.434 341.889 439.03 342.717 437.694 343.541C436.399 344.376 435.302 345.134 434.404 345.814C433.506 346.495 432.995 347.061 432.869 347.513C432.754 347.924 432.792 348.267 432.982 348.541C433.171 348.815 433.574 349.038 434.191 349.209C434.848 349.392 435.821 349.397 437.109 349.224C438.439 349.062 439.896 348.759 441.481 348.314C443.066 347.87 444.639 347.311 446.199 346.637C447.771 345.923 449.142 345.131 450.314 344.261C451.539 343.362 452.388 342.38 452.861 341.316C453.19 340.611 453.463 339.867 453.68 339.086C453.806 338.634 454.106 338.274 454.578 338.007C455.104 337.711 455.572 337.62 455.983 337.734C456.887 337.985 457.191 338.646 456.894 339.714C456.631 340.66 455.844 341.659 454.532 342.711C453.262 343.775 451.672 344.794 449.762 345.769C447.905 346.713 445.927 347.536 443.828 348.236C441.77 348.948 439.795 349.44 437.904 349.711C436.054 349.993 434.512 349.963 433.279 349.62C432.539 349.414 431.995 349.063 431.645 348.568C431.255 348.061 431.157 347.458 431.351 346.759C431.569 345.978 432.161 345.124 433.127 344.197C434.093 343.27 435.262 342.333 436.633 341.386C437.962 340.427 439.275 339.53 440.57 338.694C441.906 337.87 443.047 337.191 443.993 336.657C444.939 336.123 445.496 335.791 445.665 335.661ZM449.53 345.172L449.92 345.68C449.406 345.935 448.948 346.229 448.546 346.56C448.196 346.861 447.959 347.238 447.833 347.69C447.65 348.347 447.949 348.785 448.73 349.002C449.47 349.208 450.337 349.117 451.33 348.729C452.365 348.353 453.408 347.868 454.459 347.274C455.509 346.681 456.397 346.197 457.121 345.823L457.511 346.33C456.764 346.786 455.839 347.326 454.736 347.949C453.685 348.543 452.601 349.016 451.484 349.37C450.367 349.723 449.398 349.786 448.576 349.557C447.384 349.226 446.925 348.566 447.199 347.58C447.359 347.004 447.588 346.581 447.885 346.309C448.193 345.996 448.741 345.617 449.53 345.172ZM471.191 348.371C470.927 348.647 470.594 348.856 470.192 349C469.831 349.156 469.557 349.249 469.368 349.28C469.233 349.283 469.312 349.173 469.604 348.951C470.616 348.282 471.343 347.592 471.787 346.881C472.272 346.182 472.461 345.571 472.355 345.047C472.303 344.495 471.971 344.124 471.36 343.934C470.545 343.682 469.486 343.711 468.184 344.022C466.881 344.333 465.475 344.835 463.965 345.528C462.495 346.234 461.062 347.041 459.664 347.948C458.319 348.826 457.165 349.742 456.2 350.693C455.247 351.604 454.645 352.467 454.392 353.282C454.203 353.894 454.205 354.319 454.399 354.557C454.593 354.796 454.812 354.954 455.057 355.029C455.994 355.32 457.207 355.227 458.695 354.75C460.236 354.245 461.867 353.522 463.588 352.581C465.309 351.64 466.975 350.66 468.586 349.641C470.21 348.581 471.627 347.613 472.837 346.737C474.087 345.874 474.938 345.289 475.39 344.982C475.788 345.284 476.299 345.51 476.923 345.658C477.588 345.82 478.151 345.949 478.612 346.048C478.492 346.145 477.906 346.521 476.854 347.178C475.843 347.847 474.611 348.649 473.16 349.584C471.762 350.491 470.332 351.433 468.868 352.408C467.445 353.397 466.235 354.273 465.239 355.036C464.243 355.799 463.695 356.344 463.594 356.67C463.467 357.078 463.467 357.368 463.592 357.541C463.771 357.685 464.064 357.821 464.471 357.947C464.973 358.058 465.755 358.055 466.819 357.938C467.895 357.78 469.363 357.297 471.222 356.488C473.08 355.679 475.434 354.354 478.283 352.512C478.283 352.512 478.346 352.599 478.471 352.771C478.637 352.957 478.72 353.049 478.72 353.049C475.39 355.144 472.434 356.685 469.85 357.671C467.279 358.616 465.137 358.824 463.426 358.293C462.529 358.015 461.962 357.683 461.724 357.297C461.528 356.923 461.511 356.471 461.675 355.942C461.802 355.534 462.116 355.095 462.619 354.626C463.175 354.128 463.766 353.664 464.391 353.232C465.016 352.8 465.522 352.466 465.908 352.228C465.908 352.228 465.874 352.195 465.805 352.129C465.736 352.063 465.702 352.03 465.702 352.03C464.411 352.881 463.084 353.631 461.721 354.281C460.358 354.93 459.059 355.376 457.822 355.618C456.627 355.873 455.54 355.849 454.562 355.546C453.543 355.23 452.905 354.765 452.65 354.149C452.406 353.493 452.449 352.635 452.777 351.576C453.093 350.557 453.798 349.435 454.892 348.211C455.999 346.946 457.378 345.81 459.03 344.803C460.695 343.756 462.528 343.029 464.531 342.622C466.574 342.227 468.675 342.365 470.835 343.034C471.895 343.363 472.565 343.794 472.846 344.328C473.14 344.821 473.185 345.326 472.98 345.843C472.775 346.36 472.488 346.852 472.12 347.319C471.752 347.786 471.443 348.136 471.191 348.371ZM478.18 353.488C477.964 353.595 477.836 353.575 477.796 353.426C477.77 353.237 477.804 353.069 477.899 352.92C478.818 352.465 479.758 351.881 480.718 351.169C481.719 350.471 482.578 349.793 483.295 349.134C484.053 348.489 484.52 348.038 484.696 347.783C484.777 347.81 484.919 347.79 485.122 347.723C485.365 347.67 485.56 347.691 485.708 347.786C485.572 348.055 485.423 348.298 485.261 348.513C485.138 348.742 485.205 349.012 485.46 349.323C485.716 349.634 486.315 350.061 487.257 350.604C488.2 351.147 489.661 351.888 491.641 352.825C491.83 352.934 491.944 353.062 491.984 353.211C492.078 353.333 491.97 353.454 491.659 353.574C490.687 353.922 489.579 354.404 488.335 355.02C487.092 355.637 485.848 356.32 484.604 357.072C483.414 357.796 482.373 358.548 481.48 359.328C480.627 360.121 480.092 360.841 479.874 361.488C479.628 362.216 479.829 362.689 480.476 362.907C481.285 363.179 482.303 363.163 483.532 362.856C484.802 362.564 486.119 362.13 487.483 361.554C488.862 360.938 490.159 360.295 491.376 359.625C492.646 358.927 493.694 358.357 494.518 357.915L494.881 358.442C494.124 358.817 493.131 359.361 491.9 360.072C490.67 360.782 489.312 361.473 487.825 362.142C486.393 362.785 484.927 363.259 483.429 363.564C481.944 363.829 480.534 363.737 479.2 363.287C478.432 363.028 477.806 362.614 477.322 362.046C476.824 361.518 476.726 360.81 477.025 359.92C477.312 359.071 477.975 358.304 479.017 357.62C480.058 356.935 481.281 356.312 482.686 355.75C484.105 355.147 485.544 354.619 487.002 354.166C488.515 353.685 489.859 353.237 491.034 352.823L491.275 353.512C490.925 353.214 490.265 352.834 489.295 352.372C488.339 351.87 487.356 351.313 486.346 350.702C485.35 350.051 484.522 349.367 483.864 348.65C483.245 347.946 483.066 347.21 483.325 346.442C483.461 346.038 483.786 345.607 484.3 345.15C484.869 344.666 485.456 344.527 486.063 344.731C486.629 344.922 486.972 345.173 487.092 345.483C487.226 345.754 487.232 346.071 487.109 346.435C487.028 346.677 486.655 347.115 485.992 347.746C485.342 348.338 484.544 349.037 483.597 349.843C482.663 350.609 481.703 351.321 480.715 351.979C479.769 352.65 478.924 353.153 478.18 353.488Z" fill="#FD0591"/>
<defs>
<filter id="filter0_d_9_18" x="106.48" y="375.516" width="430.056" height="210.304" filterUnits="userSpaceOnUse" color-interpolation-filters="sRGB">
<feFlood flood-opacity="0" result="BackgroundImageFix"/>
<feColorMatrix in="SourceAlpha" type="matrix" values="0 0 0 0 0 0 0 0 0 0 0 0 0 0 0 0 0 0 127 0" result="hardAlpha"/>
<feOffset dy="4"/>
<feGaussianBlur stdDeviation="2"/>
<feComposite in2="hardAlpha" operator="out"/>
<feColorMatrix type="matrix" values="0 0 0 0 0 0 0 0 0 0 0 0 0 0 0 0 0 0 0.25 0"/>
<feBlend mode="normal" in2="BackgroundImageFix" result="effect1_dropShadow_9_18"/>
<feBlend mode="normal" in="SourceGraphic" in2="effect1_dropShadow_9_18" result="shape"/>
</filter>
</defs>
</svg>
